<mxfile host="65bd71144e">
    <diagram id="4QLZkowvjsxWIg_K8Mz_" name="Page-1">
        <mxGraphModel dx="1116" dy="535" grid="1" gridSize="10" guides="1" tooltips="1" connect="1" arrows="1" fold="1" page="1" pageScale="1" pageWidth="827" pageHeight="1169" math="0" shadow="0">
            <root>
                <mxCell id="0"/>
                <mxCell id="1" parent="0"/>
                <mxCell id="TCIlKgK15rvMpgmdI_dN-1" value="App" style="rounded=0;whiteSpace=wrap;html=1;" parent="1" vertex="1">
                    <mxGeometry x="150" y="20" width="440" height="230" as="geometry"/>
                </mxCell>
                <mxCell id="TCIlKgK15rvMpgmdI_dN-27" value="" style="edgeStyle=orthogonalEdgeStyle;rounded=0;orthogonalLoop=1;jettySize=auto;html=1;" parent="1" source="TCIlKgK15rvMpgmdI_dN-2" target="TCIlKgK15rvMpgmdI_dN-1" edge="1">
                    <mxGeometry relative="1" as="geometry"/>
                </mxCell>
                <mxCell id="TCIlKgK15rvMpgmdI_dN-2" value="Cat Search" style="rounded=0;whiteSpace=wrap;html=1;" parent="1" vertex="1">
                    <mxGeometry y="320" width="800" height="470" as="geometry"/>
                </mxCell>
                <mxCell id="TCIlKgK15rvMpgmdI_dN-3" value="Display Data" style="rounded=0;whiteSpace=wrap;html=1;" parent="1" vertex="1">
                    <mxGeometry x="320" y="570" width="120" height="80" as="geometry"/>
                </mxCell>
                <mxCell id="TCIlKgK15rvMpgmdI_dN-4" value="Get Data" style="rounded=0;whiteSpace=wrap;html=1;" parent="1" vertex="1">
                    <mxGeometry x="160" y="520" width="120" height="130" as="geometry"/>
                </mxCell>
                <mxCell id="TCIlKgK15rvMpgmdI_dN-8" value="Click cat&lt;br&gt;use callBack" style="shape=step;perimeter=stepPerimeter;whiteSpace=wrap;html=1;fixedSize=1;" parent="1" vertex="1">
                    <mxGeometry x="480" y="560" width="125" height="50" as="geometry"/>
                </mxCell>
                <mxCell id="TCIlKgK15rvMpgmdI_dN-9" value="Use Effect" style="shape=step;perimeter=stepPerimeter;whiteSpace=wrap;html=1;fixedSize=1;fillColor=#dae8fc;strokeColor=#6c8ebf;" parent="1" vertex="1">
                    <mxGeometry x="10" y="520" width="120" height="50" as="geometry"/>
                </mxCell>
                <mxCell id="TCIlKgK15rvMpgmdI_dN-11" value="Search Again" style="shape=step;perimeter=stepPerimeter;whiteSpace=wrap;html=1;fixedSize=1;" parent="1" vertex="1">
                    <mxGeometry x="10" y="590" width="120" height="50" as="geometry"/>
                </mxCell>
                <mxCell id="TCIlKgK15rvMpgmdI_dN-14" value="Add to Basket" style="rounded=0;whiteSpace=wrap;html=1;" parent="1" vertex="1">
                    <mxGeometry x="650" y="520" width="120" height="130" as="geometry"/>
                </mxCell>
                <mxCell id="TCIlKgK15rvMpgmdI_dN-15" value="Basket&lt;br&gt;state passed as a prop" style="rounded=0;whiteSpace=wrap;html=1;" parent="1" vertex="1">
                    <mxGeometry x="640" y="10" width="160" height="290" as="geometry"/>
                </mxCell>
                <mxCell id="TCIlKgK15rvMpgmdI_dN-16" value="useState(basket)&lt;br&gt;Array of&lt;br&gt;catId and price" style="shape=hexagon;perimeter=hexagonPerimeter2;whiteSpace=wrap;html=1;fixedSize=1;" parent="1" vertex="1">
                    <mxGeometry x="500" y="230" width="120" height="80" as="geometry"/>
                </mxCell>
                <mxCell id="TCIlKgK15rvMpgmdI_dN-17" value="" style="shape=flexArrow;endArrow=classic;html=1;rounded=0;exitX=1;exitY=0.5;exitDx=0;exitDy=0;" parent="1" source="TCIlKgK15rvMpgmdI_dN-4" target="TCIlKgK15rvMpgmdI_dN-3" edge="1">
                    <mxGeometry width="50" height="50" relative="1" as="geometry">
                        <mxPoint x="300" y="630" as="sourcePoint"/>
                        <mxPoint x="350" y="580" as="targetPoint"/>
                    </mxGeometry>
                </mxCell>
                <mxCell id="TCIlKgK15rvMpgmdI_dN-18" value="Faker for prices and location" style="rounded=0;whiteSpace=wrap;html=1;" parent="1" vertex="1">
                    <mxGeometry x="300" y="710" width="120" height="60" as="geometry"/>
                </mxCell>
                <mxCell id="TCIlKgK15rvMpgmdI_dN-19" value="" style="shape=flexArrow;endArrow=classic;html=1;rounded=0;exitX=0.5;exitY=0;exitDx=0;exitDy=0;" parent="1" source="TCIlKgK15rvMpgmdI_dN-18" edge="1">
                    <mxGeometry width="50" height="50" relative="1" as="geometry">
                        <mxPoint x="300" y="630" as="sourcePoint"/>
                        <mxPoint x="360" y="650" as="targetPoint"/>
                    </mxGeometry>
                </mxCell>
                <mxCell id="TCIlKgK15rvMpgmdI_dN-20" value="" style="shape=flexArrow;endArrow=classic;html=1;rounded=0;entryX=0;entryY=0.5;entryDx=0;entryDy=0;exitX=1;exitY=0.5;exitDx=0;exitDy=0;" parent="1" source="TCIlKgK15rvMpgmdI_dN-3" target="TCIlKgK15rvMpgmdI_dN-8" edge="1">
                    <mxGeometry width="50" height="50" relative="1" as="geometry">
                        <mxPoint x="300" y="610" as="sourcePoint"/>
                        <mxPoint x="350" y="560" as="targetPoint"/>
                    </mxGeometry>
                </mxCell>
                <mxCell id="TCIlKgK15rvMpgmdI_dN-21" value="" style="shape=flexArrow;endArrow=classic;html=1;rounded=0;exitX=1;exitY=0.5;exitDx=0;exitDy=0;entryX=0;entryY=0.5;entryDx=0;entryDy=0;" parent="1" source="TCIlKgK15rvMpgmdI_dN-9" target="TCIlKgK15rvMpgmdI_dN-4" edge="1">
                    <mxGeometry width="50" height="50" relative="1" as="geometry">
                        <mxPoint x="300" y="610" as="sourcePoint"/>
                        <mxPoint x="350" y="560" as="targetPoint"/>
                    </mxGeometry>
                </mxCell>
                <mxCell id="TCIlKgK15rvMpgmdI_dN-22" value="" style="shape=flexArrow;endArrow=classic;html=1;rounded=0;exitX=1;exitY=0.5;exitDx=0;exitDy=0;entryX=0;entryY=0.5;entryDx=0;entryDy=0;" parent="1" source="TCIlKgK15rvMpgmdI_dN-11" target="TCIlKgK15rvMpgmdI_dN-4" edge="1">
                    <mxGeometry width="50" height="50" relative="1" as="geometry">
                        <mxPoint x="140" y="555" as="sourcePoint"/>
                        <mxPoint x="150" y="590" as="targetPoint"/>
                    </mxGeometry>
                </mxCell>
                <mxCell id="TCIlKgK15rvMpgmdI_dN-23" value="" style="shape=flexArrow;endArrow=classic;html=1;rounded=0;entryX=0;entryY=0.5;entryDx=0;entryDy=0;" parent="1" target="TCIlKgK15rvMpgmdI_dN-14" edge="1">
                    <mxGeometry width="50" height="50" relative="1" as="geometry">
                        <mxPoint x="600" y="585" as="sourcePoint"/>
                        <mxPoint x="350" y="560" as="targetPoint"/>
                    </mxGeometry>
                </mxCell>
                <mxCell id="TCIlKgK15rvMpgmdI_dN-24" value="" style="shape=flexArrow;endArrow=classic;html=1;rounded=0;entryX=0.013;entryY=0.126;entryDx=0;entryDy=0;entryPerimeter=0;exitX=1;exitY=0.5;exitDx=0;exitDy=0;startArrow=none;" parent="1" source="TCIlKgK15rvMpgmdI_dN-7" target="TCIlKgK15rvMpgmdI_dN-15" edge="1">
                    <mxGeometry width="50" height="50" relative="1" as="geometry">
                        <mxPoint x="300" y="210" as="sourcePoint"/>
                        <mxPoint x="350" y="160" as="targetPoint"/>
                    </mxGeometry>
                </mxCell>
                <mxCell id="TCIlKgK15rvMpgmdI_dN-25" value="Individual cat card&lt;br&gt;include&lt;br&gt;photo&lt;br&gt;price&lt;br&gt;add to basket icon" style="whiteSpace=wrap;html=1;aspect=fixed;" parent="1" vertex="1">
                    <mxGeometry x="340" y="330" width="120" height="120" as="geometry"/>
                </mxCell>
                <mxCell id="9ifzcNWyO4daMHC8aCRS-1" value="" style="shape=flexArrow;endArrow=classic;html=1;rounded=0;exitX=0.5;exitY=0;exitDx=0;exitDy=0;entryX=0.5;entryY=1;entryDx=0;entryDy=0;" parent="1" source="TCIlKgK15rvMpgmdI_dN-14" target="TCIlKgK15rvMpgmdI_dN-16" edge="1">
                    <mxGeometry width="50" height="50" relative="1" as="geometry">
                        <mxPoint x="685" y="460" as="sourcePoint"/>
                        <mxPoint x="560" y="360" as="targetPoint"/>
                    </mxGeometry>
                </mxCell>
                <mxCell id="9ifzcNWyO4daMHC8aCRS-2" value="Show basket button" style="rounded=1;whiteSpace=wrap;html=1;" parent="1" vertex="1">
                    <mxGeometry x="500" y="30" width="80" height="40" as="geometry"/>
                </mxCell>
                <mxCell id="9ifzcNWyO4daMHC8aCRS-3" value="UseState for cat data" style="shape=hexagon;perimeter=hexagonPerimeter2;whiteSpace=wrap;html=1;fixedSize=1;" parent="1" vertex="1">
                    <mxGeometry x="20" y="330" width="110" height="70" as="geometry"/>
                </mxCell>
                <mxCell id="TCIlKgK15rvMpgmdI_dN-7" value="FN - Callback&lt;br&gt;Add cat to basket state" style="rounded=0;whiteSpace=wrap;html=1;" parent="1" vertex="1">
                    <mxGeometry x="570" y="150" width="120" height="60" as="geometry"/>
                </mxCell>
                <mxCell id="2" value="" style="shape=flexArrow;endArrow=none;html=1;rounded=0;entryX=0.013;entryY=0.126;entryDx=0;entryDy=0;entryPerimeter=0;exitX=1;exitY=0.5;exitDx=0;exitDy=0;" parent="1" source="TCIlKgK15rvMpgmdI_dN-16" target="TCIlKgK15rvMpgmdI_dN-7" edge="1">
                    <mxGeometry width="50" height="50" relative="1" as="geometry">
                        <mxPoint x="620" y="270" as="sourcePoint"/>
                        <mxPoint x="642.0799999999999" y="46.539999999999964" as="targetPoint"/>
                    </mxGeometry>
                </mxCell>
                <mxCell id="3" value="Click more info&lt;br&gt;Pass (cat &amp;amp; cat detils)" style="shape=step;perimeter=stepPerimeter;whiteSpace=wrap;html=1;fixedSize=1;" vertex="1" parent="1">
                    <mxGeometry x="480" y="660" width="120" height="80" as="geometry"/>
                </mxCell>
                <mxCell id="4" value="display Model" style="rounded=0;whiteSpace=wrap;html=1;" vertex="1" parent="1">
                    <mxGeometry x="640" y="700" width="180" height="170" as="geometry"/>
                </mxCell>
                <mxCell id="5" value="Load cat and cat details" style="rounded=0;whiteSpace=wrap;html=1;" vertex="1" parent="1">
                    <mxGeometry x="720" y="700" width="90" height="60" as="geometry"/>
                </mxCell>
                <mxCell id="6" value="Close the model" style="shape=step;perimeter=stepPerimeter;whiteSpace=wrap;html=1;fixedSize=1;" vertex="1" parent="1">
                    <mxGeometry x="730" y="810" width="90" height="50" as="geometry"/>
                </mxCell>
                <mxCell id="7" value="" style="shape=flexArrow;endArrow=classic;html=1;rounded=0;" edge="1" parent="1" source="TCIlKgK15rvMpgmdI_dN-3" target="3">
                    <mxGeometry width="50" height="50" relative="1" as="geometry">
                        <mxPoint x="370" y="720" as="sourcePoint"/>
                        <mxPoint x="370" y="660" as="targetPoint"/>
                    </mxGeometry>
                </mxCell>
                <mxCell id="8" value="" style="shape=flexArrow;endArrow=classic;html=1;entryX=0;entryY=0.5;entryDx=0;entryDy=0;exitX=1;exitY=0.5;exitDx=0;exitDy=0;" edge="1" parent="1" source="3" target="4">
                    <mxGeometry width="50" height="50" relative="1" as="geometry">
                        <mxPoint x="530" y="870" as="sourcePoint"/>
                        <mxPoint x="580" y="820" as="targetPoint"/>
                    </mxGeometry>
                </mxCell>
            </root>
        </mxGraphModel>
    </diagram>
</mxfile>